<?xml version="1.0" encoding="utf-8"?>
<!-- Generator: Adobe Illustrator 25.0.0, SVG Export Plug-In . SVG Version: 6.00 Build 0)  -->
<svg version="1.1" id="Layer_1" xmlns="http://www.w3.org/2000/svg" xmlns:xlink="http://www.w3.org/1999/xlink" x="0px" y="0px"
	 viewBox="0 0 2135.79 1423.86" style="enable-background:new 0 0 2135.79 1423.86;" xml:space="preserve">
<style type="text/css">
	.st0{fill:url(#SVGID_1_);}
	.st1{opacity:0.12;}
	.st2{fill:#313131;}
	.st3{opacity:0.14;fill:#313131;enable-background:new    ;}
	.st4{fill:url(#SVGID_2_);}
	.st5{fill:url(#SVGID_3_);}
	.st6{fill:#D85555;}
	.st7{fill:#A6C144;}
	.st8{fill:#BFBFBF;}
	.st9{opacity:0.14;}
</style>
<g id="Layer_3">
</g>
<g id="Layer_2_1_">
	
		<linearGradient id="SVGID_1_" gradientUnits="userSpaceOnUse" x1="1465.1986" y1="866.8948" x2="198.8156" y2="378.7244" gradientTransform="matrix(1 0 0 -1 0 1426)">
		<stop  offset="0.1726" style="stop-color:#BFBFBF"/>
		<stop  offset="0.4548" style="stop-color:#EFEFEF"/>
		<stop  offset="0.7252" style="stop-color:#BFBFBF"/>
	</linearGradient>
	<path class="st0" d="M1.26,3.45v1417.48h2133.63V3.45H1.26z M1612.89,1213.93h-1506v-1004h1506V1213.93z"/>
	<g class="st1">
		<path class="st2" d="M1768.1,740.93c-4.52,0-8.2-3.66-8.2-8.15v-377.7c0-4.49,3.68-8.15,8.2-8.15h240.6c4.52,0,8.2,3.66,8.2,8.15
			v377.7c0,4.49-3.68,8.15-8.2,8.15H1768.1z"/>
	</g>
	<g>
		<path class="st3" d="M92.89,1228.93h1534v-1030h-1534L92.89,1228.93L92.89,1228.93z M153.22,1131.43V296.17
			c0-21.35,17.18-38.65,38.38-38.65h1336.34h0.26c21.19,0,38.38,17.3,38.38,38.65v0.26v835v0.26c0,21.35-17.18,38.65-38.38,38.65
			h-0.26H191.86h-0.26c-21.19,0-38.38-17.3-38.38-38.65V1131.43z"/>
		<path class="st2" d="M106.89,1213.93h1506v-1004h-1506L106.89,1213.93L106.89,1213.93z M166.12,1118.89V304.71
			c0-20.81,16.87-37.68,37.68-37.68h1311.94h0.26c20.81,0,37.68,16.87,37.68,37.68v0.26v813.92v0.25
			c0,20.81-16.87,37.68-37.68,37.68h-0.26H204.05h-0.26c-20.81,0-37.68-16.87-37.68-37.68L166.12,1118.89L166.12,1118.89z"/>
		
			<linearGradient id="SVGID_2_" gradientUnits="userSpaceOnUse" x1="238.7448" y1="354.6443" x2="1492.9551" y2="1080.3872" gradientTransform="matrix(1 0 0 -1 0 1426)">
			<stop  offset="0" style="stop-color:#4A4A4A"/>
			<stop  offset="0.3101" style="stop-color:#969696"/>
			<stop  offset="0.5391" style="stop-color:#4A4A4A"/>
			<stop  offset="0.7514" style="stop-color:#999999"/>
			<stop  offset="0.9944" style="stop-color:#4A4A4A"/>
		</linearGradient>
		<path class="st4" d="M107.15,1213.93h1505.49c0.14,0,0.25-0.11,0.25-0.25V210.18c0-0.14-0.11-0.25-0.25-0.25H107.15
			c-0.14,0-0.25,0.11-0.25,0.25v1003.49C106.89,1213.81,107.01,1213.93,107.15,1213.93z M166.12,1118.89V304.97
			c0-20.95,16.98-37.93,37.93-37.93h1311.69l0,0c20.95,0,37.93,16.98,37.93,37.93l0,0v813.92l0,0c0,20.95-16.98,37.93-37.93,37.93
			l0,0H204.05l0,0C183.1,1156.82,166.12,1139.84,166.12,1118.89L166.12,1118.89z"/>
		<path class="st2" d="M204.05,1156.82h1311.69c20.95,0,37.93-16.98,37.93-37.93V304.97c0-20.95-16.98-37.93-37.93-37.93H203.79
			c-20.81,0-37.68,16.87-37.68,37.68v814.17C166.12,1139.84,183.1,1156.82,204.05,1156.82z M183.76,322.34
			c0-20.81,16.87-37.68,37.68-37.68h1277.02c20.81,0,37.68,16.87,37.68,37.68v779.18c0,20.81-16.87,37.68-37.68,37.68H221.44
			c-20.81,0-37.68-16.87-37.68-37.68L183.76,322.34L183.76,322.34z"/>
		<path class="st2" d="M1515.74,1156.82h0.26c20.81,0,37.68-16.87,37.68-37.68v-0.25
			C1553.67,1139.84,1536.69,1156.82,1515.74,1156.82z"/>
		<path class="st2" d="M1553.67,304.97v-0.26c0-20.81-16.87-37.68-37.68-37.68h-0.26C1536.69,267.04,1553.67,284.02,1553.67,304.97z
			"/>
		<path class="st2" d="M203.79,1156.82h0.26c-20.95,0-37.93-16.98-37.93-37.93v0.25C166.12,1139.95,182.99,1156.82,203.79,1156.82z"
			/>
	</g>
	<g>
		<g>
			
				<linearGradient id="SVGID_3_" gradientUnits="userSpaceOnUse" x1="2080.9614" y1="971.334" x2="1708.0083" y2="811.1232" gradientTransform="matrix(1 0 0 -1 0 1426)">
				<stop  offset="0.2683" style="stop-color:#4A4A4A"/>
				<stop  offset="0.4888" style="stop-color:#848484"/>
				<stop  offset="0.5531" style="stop-color:#7D7D7D"/>
				<stop  offset="0.6452" style="stop-color:#6A6A6A"/>
				<stop  offset="0.7537" style="stop-color:#4B4B4B"/>
				<stop  offset="0.7581" style="stop-color:#4A4A4A"/>
			</linearGradient>
			<path class="st5" d="M1764.75,732.87c-4.39,0-7.97-3.57-7.97-7.97V355.7c0-4.39,3.57-7.97,7.97-7.97h233.73
				c4.39,0,7.97,3.57,7.97,7.97v369.2c0,4.39-3.57,7.97-7.97,7.97H1764.75z"/>
		</g>
		<path class="st2" d="M1974.82,482.71c0,0.74-1.67,1.34-3.74,1.34h-178.93c-2.06,0-3.74-0.6-3.74-1.34V381.23
			c0-0.74,1.67-1.34,3.74-1.34h178.93c2.06,0,3.74,0.6,3.74,1.34L1974.82,482.71L1974.82,482.71z"/>
		<g>
			<path class="st6" d="M1873.51,676.49h-71.68c-2.7,0-4.88,1.75-4.88,3.92v25.45c0,2.17,2.19,3.92,4.88,3.92h71.68
				c2.7,0,4.88-1.75,4.88-3.92V680.4C1878.4,678.24,1876.21,676.49,1873.51,676.49z"/>
			<path class="st7" d="M1965.06,676.49h-71.68c-2.7,0-4.88,1.75-4.88,3.92v25.45c0,2.17,2.19,3.92,4.88,3.92h71.68
				c2.7,0,4.88-1.75,4.88-3.92V680.4C1969.94,678.24,1967.75,676.49,1965.06,676.49z"/>
		</g>
		<g>
			<path class="st8" d="M1833.57,514.15h-31.74c-2.7,0-4.88,2.19-4.88,4.88v31.74c0,2.69,2.19,4.88,4.88,4.88h31.74
				c2.7,0,4.88-2.18,4.88-4.88v-31.74C1838.45,516.34,1836.27,514.15,1833.57,514.15z"/>
			<path class="st8" d="M1899.31,514.15h-31.74c-2.69,0-4.88,2.19-4.88,4.88v31.74c0,2.69,2.19,4.88,4.88,4.88h31.74
				c2.7,0,4.88-2.18,4.88-4.88v-31.74C1904.2,516.34,1902.01,514.15,1899.31,514.15z"/>
			<path class="st8" d="M1965.06,514.15h-31.73c-2.7,0-4.88,2.19-4.88,4.88v31.74c0,2.69,2.19,4.88,4.88,4.88h31.73
				c2.7,0,4.88-2.18,4.88-4.88v-31.74C1969.94,516.34,1967.75,514.15,1965.06,514.15z"/>
			<path class="st8" d="M1833.57,567.85h-31.74c-2.7,0-4.88,2.19-4.88,4.88v31.73c0,2.7,2.19,4.88,4.88,4.88h31.74
				c2.7,0,4.88-2.19,4.88-4.88v-31.73C1838.45,570.04,1836.27,567.85,1833.57,567.85z"/>
			<path class="st8" d="M1899.31,567.85h-31.74c-2.69,0-4.88,2.19-4.88,4.88v31.73c0,2.7,2.19,4.88,4.88,4.88h31.74
				c2.7,0,4.88-2.19,4.88-4.88v-31.73C1904.2,570.04,1902.01,567.85,1899.31,567.85z"/>
			<path class="st8" d="M1965.06,567.85h-31.73c-2.7,0-4.88,2.19-4.88,4.88v31.73c0,2.7,2.19,4.88,4.88,4.88h31.73
				c2.7,0,4.88-2.19,4.88-4.88v-31.73C1969.94,570.04,1967.75,567.85,1965.06,567.85z"/>
			<path class="st8" d="M1833.57,621.56h-31.74c-2.7,0-4.88,2.19-4.88,4.88v31.73c0,2.7,2.19,4.88,4.88,4.88h31.74
				c2.7,0,4.88-2.18,4.88-4.88v-31.73C1838.45,623.75,1836.27,621.56,1833.57,621.56z"/>
			<path class="st8" d="M1899.31,621.56h-31.74c-2.69,0-4.88,2.19-4.88,4.88v31.73c0,2.7,2.19,4.88,4.88,4.88h31.74
				c2.7,0,4.88-2.18,4.88-4.88v-31.73C1904.2,623.75,1902.01,621.56,1899.31,621.56z"/>
			<path class="st8" d="M1965.06,621.56h-31.73c-2.7,0-4.88,2.19-4.88,4.88v31.73c0,2.7,2.19,4.88,4.88,4.88h31.73
				c2.7,0,4.88-2.18,4.88-4.88v-31.73C1969.94,623.75,1967.75,621.56,1965.06,621.56z"/>
		</g>
	</g>
	<g>
		<path class="st2" d="M1766.18,899.93c-4.39,0-7.97-0.19-7.97-0.41v-19.17c0-0.23,3.57-0.41,7.97-0.41h233.73
			c4.39,0,7.97,0.19,7.97,0.41v19.17c0,0.23-3.57,0.41-7.97,0.41H1766.18z"/>
	</g>
	<g class="st9">
		<path class="st2" d="M1747.44,912.9c-5.1,0-9.25-0.4-9.25-0.89v-41.07c0-0.49,4.15-0.89,9.25-0.89h271.21
			c5.1,0,9.24,0.4,9.24,0.89v41.07c0,0.49-4.15,0.89-9.24,0.89H1747.44z"/>
	</g>
</g>
</svg>
